{"title":"Down.Terrace.PROPER.DVDRip.XviD-VAMPS","uid":6092434,"size":748553171,"categoryP":"video","categoryS":"movies","magnet":"?xt=urn:btih:3ff8edb6d992eeed155c7da4fbe7624d3e829a54&amp;dn=Down.Terrace.PROPER.DVDRip.XviD-VAMPS&amp;tr=udp%3A%2F%2Ftracker.openbittorrent.com%3A80&amp;tr=udp%3A%2F%2Fopen.demonii.com%3A1337&amp;tr=udp%3A%2F%2Ftracker.coppersurfer.tk%3A6969&amp;tr=udp%3A%2F%2Fexodus.desync.com%3A6969","seeders":1,"leechers":1,"uploader":"TvTeam","files":6,"time":1294621258,"description":". \n  &lt;a href=&quot;\nhttp://www.torrentday.com/&quot; rel=&quot;nofollow&quot; target=&quot;_NEW&quot;&gt;\nhttp://www.torrentday.com/&lt;/a&gt;        :     The Hottest Private Tracker On The Net!!! &lt;a href=&quot;\nhttp://www.torrentday.com&quot; rel=&quot;nofollow&quot; target=&quot;_NEW&quot;&gt;\nhttp://www.torrentday.com&lt;/a&gt;          :     Once you visit it, You can't stop yourself visiting Torrentday everyday ;)\n\n\n               www . TorrentDay . Com \n\n(((((((((((((= Enjoy No RAR releases =))))))))))))))))))))\n\n\n...................................NFO:....................................\n\n.VAMPS:\n\nDown Terrace (2009)\n &lt;a href=&quot;\nhttp://www.imdb.com/title/tt1489167/&quot; rel=&quot;nofollow&quot; target=&quot;_NEW&quot;&gt;\nhttp://www.imdb.com/title/tt1489167/&lt;/a&gt;\n\nTWiZTED release is out of sync throughout the all movie.\n\nDuration                         : 1h 33mn\n\nVideo\nID                               : 0\nFormat                           : MPEG-4 Visual\nFormat profile                   : Advanced Simple@L5\nFormat settings, BVOP            : Yes\nFormat settings, QPel            : No\nFormat settings, GMC             : No warppoints\nFormat settings, Matrix          : Default (H.263)\nCodec ID                         : XVID\nCodec ID/Hint                    : XviD\nDuration                         : 1h 33mn\nBit rate                         : 945 Kbps\nWidth                            : 640 pixels\nHeight                           : 272 pixels\nDisplay aspect ratio             : 2.35:1\nFrame rate                       : 23.976 fps\nColor space                      : YUV\nChroma subsampling               : 4:2:0\nBit depth                        : 8 bits\nScan type                        : Progressive\nBits/(Pixel*Frame)               : 0.217\nStream size                      : 603 MiB (86%)\nWriting library                  : XviD 1.2.2\n\nAudio\nID                               : 1\nFormat                           : MPEG Audio\nFormat version                   : Version 1\nFormat profile                   : Layer 3\nMode                             : Joint stereo\nMode extension                   : MS Stereo\nCodec ID                         : 55\nCodec ID/Hint                    : MP3\nDuration                         : 1h 33mn\nBit rate mode                    : Constant\nBit rate                         : 132.0 Kbps\nChannel(s)                       : 2 channels\nSampling rate                    : 48.0 KHz\nStream size                      : 84.3 MiB (14%)\nAlignment                        : Aligned on interleaves\nInterleave, duration             : 28 ms (0.68 video frame)\nInterleave, preload duration     : 015 ms\nWriting library                  : LAME3.91.","torrent":{"xt":"urn:btih:3ff8edb6d992eeed155c7da4fbe7624d3e829a54","amp;dn":"Down.Terrace.PROPER.DVDRip.XviD-VAMPS","amp;tr":["udp%3A%2F%2Ftracker.openbittorrent.com%3A80","udp%3A%2F%2Fopen.demonii.com%3A1337","udp%3A%2F%2Ftracker.coppersurfer.tk%3A6969","udp%3A%2F%2Fexodus.desync.com%3A6969"],"infoHash":"3ff8edb6d992eeed155c7da4fbe7624d3e829a54","infoHashBuffer":{"type":"Buffer","data":[63,248,237,182,217,146,238,237,21,92,125,164,251,231,98,77,62,130,154,84]},"announce":[],"urlList":[]}}